<svg xmlns="http://www.w3.org/2000/svg" version="1.1" xmlns:xlink="http://www.w3.org/1999/xlink" xmlns:svgjs="http://svgjs.dev/svgjs" width="2000" height="818" viewBox="0 0 2000 818"><g transform="matrix(1,0,0,1,-1.2121212121212466,0.5039466149007126)"><svg viewBox="0 0 396 162" data-background-color="#ffffff" preserveAspectRatio="xMidYMid meet" height="818" width="2000" xmlns="http://www.w3.org/2000/svg" xmlns:xlink="http://www.w3.org/1999/xlink"><g id="tight-bounds" transform="matrix(1,0,0,1,0.2400000000000091,-0.09980360832996382)"><svg viewBox="0 0 395.52 162.19960721665993" height="162.19960721665993" width="395.52"><g><svg viewBox="0 0 626.0636708018799 256.7437335575577" height="162.19960721665993" width="395.52"><g><rect width="22.2927511104" height="248.43599999999998" x="327.5887172448431" y="4.153866778778848" fill="#35185a" opacity="1" stroke-width="0" stroke="transparent" fill-opacity="1" class="rect-r$-0" data-fill-palette-color="secondary" rx="1%" id="r$-0" data-palette-color="#35185a"></rect></g><g transform="matrix(1,0,0,1,408.2394555552431,4.771866778778829)"><svg viewBox="0 0 217.82421524663678 247.20000000000002" height="247.20000000000002" width="217.82421524663678"><g id="textblocktransform"><svg viewBox="0 0 217.82421524663678 247.20000000000002" height="247.20000000000002" width="217.82421524663678" id="textblock"><g><svg viewBox="0 0 217.82421524663678 247.20000000000002" height="247.20000000000002" width="217.82421524663678"><g transform="matrix(1,0,0,1,0,0)"><svg width="217.82421524663678" viewBox="-1 -19.75 19.65 22.3" height="247.20000000000002" data-palette-color="#ffffff"><path d="M5.25 2.55L5.25 2.55Q2.9 2.55 1.53 1.53 0.15 0.5-0.43-1-1-2.5-1-4L-1-4Q-1-5.5-0.6-6.3-0.2-7.1 0.38-7.5 0.95-7.9 1.48-8.1 2-8.3 2.2-8.5L2.2-8.5Q3.7-10.15 4.95-11.95 6.2-13.75 7.15-15.75L7.15-15.75 7.15-16.35Q7.15-18.2 7.78-18.98 8.4-19.75 9.1-19.75L9.1-19.75Q9.5-19.75 9.7-19.55 9.9-19.35 9.9-19.1L9.9-19.1Q9.9-18.85 9.75-18.3 9.6-17.75 9.6-16.9L9.6-16.9Q9.6-15.25 10.25-13.33 10.9-11.4 11.55-9.28 12.2-7.15 12.2-4.85L12.2-4.85Q12.2-4.2 12.13-3.58 12.05-2.95 11.9-2.4L11.9-2.4Q13.65-2.7 15.2-3.98 16.75-5.25 18.2-8.05L18.2-8.05 18.65-7.55Q17.7-4.8 15.8-3.38 13.9-1.95 11.65-1.6L11.65-1.6Q10.85 0.55 9.13 1.55 7.4 2.55 5.25 2.55ZM5.35 0.8L5.35 0.8Q5.95 0.8 6.95 0.4 7.95 0 8.5-1.65L8.5-1.65Q6.4-2.05 4.78-3.3 3.15-4.55 2.35-5.8L2.35-5.8Q1.25-5.75 1.25-4.05L1.25-4.05Q1.25-2.25 2.33-0.73 3.4 0.8 5.35 0.8ZM8.75-2.45L8.75-2.45Q8.85-2.95 8.9-3.5 8.95-4.05 8.95-4.8L8.95-4.8Q8.95-7.15 8.38-9.47 7.8-11.8 7.4-13.85L7.4-13.85Q6.25-11.95 4.98-10.23 3.7-8.5 2.55-7.35L2.55-7.35Q3.3-5.75 4.88-4.35 6.45-2.95 8.75-2.45Z" opacity="1" transform="matrix(1,0,0,1,0,0)" fill="#ffffff" class="wordmark-text-0" data-fill-palette-color="primary" id="text-0"></path></svg></g></svg></g></svg></g></svg></g><g><svg viewBox="0 0 269.2307300448431 256.7437335575577" height="256.7437335575577" width="269.2307300448431"><g><svg xmlns="http://www.w3.org/2000/svg" xmlns:xlink="http://www.w3.org/1999/xlink" version="1.1" x="8" y="0" viewBox="11.096102671952927 9.99925 78.90314732804708 79.99774999999997" enable-background="new 0 0 100 100" xml:space="preserve" height="256.7437335575577" width="253.23073004484309" class="icon-icon-0" data-fill-palette-color="accent" id="icon-0"><g fill="#35185a" data-fill-palette-color="accent"><path d="M41.123 68.425c-3.833-0.664-7.779-1.348-10.318-2.266-4.209-1.621-1.831-4.028 0-4.59 1.221-0.332 2.52-0.576 3.794-0.703 0.952-0.098 1.646-0.938 1.558-1.885-0.088-0.957-0.928-1.646-1.885-1.563-3.984 0.381-9.258 1.953-11.436 4.541-0.117 0.132-0.195 0.283-0.264 0.43-0.415 0.498-0.64 1.162-0.566 1.855 0.239 2.227 2.002 4.131 5.391 5.83 3.008 1.509 7.803 2.339 12.881 3.213 2.539 0.439 5.137 0.894 7.419 1.431 3.369 1.553-0.176 3.916-2.781 4.893-8.619 2.456-23.213 1.538-28.116-2.642-1.45-1.24-3.633-1.074-4.873 0.386-1.245 1.45-1.069 3.638 0.381 4.878 0.4 0.342 0.85 0.664 1.313 0.967 5.439 4.399 12.881 6.797 21.182 6.797 0.098 0 0.195 0 0.293 0 7.881-0.049 15.413-2.324 19.651-5.928 1.25-1.064 5.049-4.297 4.014-8.066C57.463 71.247 49.894 69.943 41.123 68.425z" fill="#35185a" data-fill-palette-color="accent"></path><path d="M88.557 14.942l-3.496-3.496c-1.934-1.929-5.068-1.929-6.992 0L53.596 35.915l10.488 10.488 24.473-24.469C90.48 20.004 90.48 16.874 88.557 14.942z" fill="#35185a" data-fill-palette-color="accent"></path><polygon points="46.604,42.904 43.989,56.013 57.092,53.396  " fill="#35185a" data-fill-palette-color="accent"></polygon></g></svg></g></svg></g></svg></g><defs></defs></svg><rect width="395.52" height="162.19960721665993" fill="none" stroke="none" visibility="hidden"></rect></g></svg></g></svg>